# xmcd
#
# Track frame offsets:
#	182
#	16500
#	27252
#	43117
#	55555
#	73875
#	85432
#	100967
#	113022
#	124350
#	138597
#	151062
#	169467
#	179262
#
# Disc length: 2643 seconds
#
# Revision: 1
# Processed by: cddbd v1.5PL3 Copyright (c) Steve Scherf et al.
# Submitted via: EasyCDDAExtractor 7.0.0.1
#
DISCID=ba0a510e
DTITLE=Various Artist - Bodest‰ndegi Musig
DYEAR=1991
DGENRE=Country
TTITLE0=Appenzeller Grossformation - Berewegge-Polka
TTITLE1=Alderbuebe - Ch‰‰sflade-Walzer
TTITLE2=Jodelduo Schoch-Kunz - Appenzeller Naturjodel
TTITLE3=B‰nziger-Hornsepp - Bime guete F‰‰sste
TTITLE4=Jodelclub Herisau - Appenzeller Naturjodel mit Talerschwingen
TTITLE5=Hackbrett Quartett Urn‰sch - Rommzonne ond Fenz
TTITLE6=Streichmusik Alder - Bime guete R‰‰sse
TTITLE7=Alderbuebe - Appezeller Art
TTITLE8=Streichmusik Alder - Ch‰‰s-Saloot
TTITLE9=B‰nziger-Hornsepp - Bim Ch‰‰se
TTITLE10=Appenzeller Grossformation - Rondomm Appezeller Ch‰‰s
TTITLE11=Jodelclub Herisau - Appenzeller Naturjodel mit Schelleschˆtte
TTITLE12=Streichmusik Alder - Wysel Gyr bim Fondue
TTITLE13=Appenzeller Grossformation - Senne-Stimmig
EXTD=
EXTT0=
EXTT1=
EXTT2=
EXTT3=
EXTT4=
EXTT5=
EXTT6=
EXTT7=
EXTT8=
EXTT9=
EXTT10=
EXTT11=
EXTT12=
EXTT13=
PLAYORDER=
